<?xml version="1.0"?>
<svg xmlns="http://www.w3.org/2000/svg" xmlns:xlink="http://www.w3.org/1999/xlink" xmlns:svgjs="http://svgjs.com/svgjs" version="1.1" width="512" height="512" x="0" y="0" viewBox="0 0 512 512" style="enable-background:new 0 0 512 512" xml:space="preserve" class=""><g><g xmlns="http://www.w3.org/2000/svg"><path d="m482.365 382.1c4.143 0 7.5-3.358 7.5-7.5v-254.18c0-30.616-19.456-57.45-47.985-67.185v-20.745c0-17.915-14.575-32.49-32.49-32.49s-32.49 14.575-32.49 32.49v16.94h-37.274v-16.94c0-17.915-14.575-32.49-32.49-32.49s-32.49 14.575-32.49 32.49v16.94h-37.276v-16.94c0-17.915-14.575-32.49-32.49-32.49s-32.49 14.575-32.49 32.49v16.94h-37.274v-16.94c0-8.678-3.38-16.837-9.517-22.974s-14.296-9.516-22.974-9.516c-17.915 0-32.49 14.575-32.49 32.49v20.742c-28.538 9.72-48 36.553-48 67.187v320.59c0 39.144 31.851 70.99 71 70.99h325.73c39.149 0 71-31.846 71-70.99v-36.409c0-4.142-3.357-7.5-7.5-7.5s-7.5 3.358-7.5 7.5v36.41c0 30.873-25.121 55.99-56 55.99h-325.73c-30.878 0-56-25.117-56-55.99v-272.375h437.73v205.965c0 4.142 3.358 7.5 7.5 7.5zm-90.466-349.61c0-9.644 7.846-17.49 17.49-17.49s17.49 7.846 17.49 17.49v53.424c0 9.644-7.846 17.49-17.49 17.49s-17.49-7.846-17.49-17.49zm-102.254 0c0-9.644 7.846-17.49 17.49-17.49s17.49 7.846 17.49 17.49v53.424c0 9.644-7.846 17.49-17.49 17.49s-17.49-7.846-17.49-17.49zm-102.256 0c0-9.644 7.846-17.49 17.49-17.49s17.49 7.846 17.49 17.49v53.424c0 9.644-7.846 17.49-17.49 17.49s-17.49-7.846-17.49-17.49zm-150.254 121.145v-33.215c0-22.384 13.172-42.191 33-51.081v16.571c0 17.915 14.575 32.49 32.49 32.49 10.604 0 20.559-5.191 26.629-13.886 2.371-3.396 1.541-8.072-1.856-10.443-3.395-2.371-8.071-1.541-10.443 1.856-3.267 4.679-8.625 7.473-14.331 7.473-9.644 0-17.49-7.846-17.49-17.49v-53.42c0-9.644 7.846-17.49 17.49-17.49 4.671 0 9.063 1.819 12.367 5.123s5.123 7.696 5.123 12.367v38.42c0 4.142 3.358 7.5 7.5 7.5s7.5-3.358 7.5-7.5v-6.48h37.274v21.485c0 17.915 14.575 32.49 32.49 32.49s32.49-14.575 32.49-32.49v-21.485h37.275v21.485c0 17.915 14.575 32.49 32.49 32.49s32.49-14.575 32.49-32.49v-21.485h37.274v21.485c0 17.915 14.575 32.49 32.49 32.49s32.49-14.575 32.49-32.49v-16.569c19.819 8.902 32.985 28.706 32.985 51.074v33.215z" fill="#ffffff" data-original="#000000" style="" class=""/><path d="m177.068 197.542c-19.263 0-34.935 15.672-34.935 34.935s15.671 34.935 34.935 34.935 34.935-15.671 34.935-34.935-15.672-34.935-34.935-34.935zm0 54.87c-10.992 0-19.935-8.942-19.935-19.935s8.942-19.935 19.935-19.935 19.935 8.943 19.935 19.935-8.943 19.935-19.935 19.935z" fill="#ffffff" data-original="#000000" style="" class=""/><path d="m256.005 197.542c-19.263 0-34.935 15.672-34.935 34.935s15.671 34.935 34.935 34.935c19.263 0 34.935-15.671 34.935-34.935s-15.672-34.935-34.935-34.935zm0 54.87c-10.992 0-19.935-8.942-19.935-19.935s8.942-19.935 19.935-19.935 19.935 8.943 19.935 19.935-8.943 19.935-19.935 19.935z" fill="#ffffff" data-original="#000000" style="" class=""/><path d="m334.941 197.542c-19.263 0-34.935 15.672-34.935 34.935s15.672 34.935 34.935 34.935 34.935-15.671 34.935-34.935-15.672-34.935-34.935-34.935zm0 54.87c-10.992 0-19.935-8.942-19.935-19.935s8.942-19.935 19.935-19.935 19.935 8.943 19.935 19.935-8.942 19.935-19.935 19.935z" fill="#ffffff" data-original="#000000" style="" class=""/><path d="m413.879 197.542c-19.263 0-34.935 15.672-34.935 34.935s15.672 34.935 34.935 34.935 34.935-15.671 34.935-34.935-15.672-34.935-34.935-34.935zm0 54.87c-10.992 0-19.935-8.942-19.935-19.935s8.942-19.935 19.935-19.935 19.935 8.943 19.935 19.935-8.943 19.935-19.935 19.935z" fill="#ffffff" data-original="#000000" style="" class=""/><path d="m98.131 294.874c-19.263 0-34.935 15.671-34.935 34.935s15.671 34.935 34.935 34.935 34.935-15.671 34.935-34.935-15.672-34.935-34.935-34.935zm0 54.869c-10.992 0-19.935-8.942-19.935-19.935s8.942-19.935 19.935-19.935 19.935 8.942 19.935 19.935-8.943 19.935-19.935 19.935z" fill="#ffffff" data-original="#000000" style="" class=""/><path d="m177.068 294.874c-19.263 0-34.935 15.671-34.935 34.935s15.671 34.935 34.935 34.935 34.935-15.671 34.935-34.935-15.672-34.935-34.935-34.935zm0 54.869c-10.992 0-19.935-8.942-19.935-19.935s8.942-19.935 19.935-19.935 19.935 8.942 19.935 19.935-8.943 19.935-19.935 19.935z" fill="#ffffff" data-original="#000000" style="" class=""/><path d="m256.005 294.874c-19.263 0-34.935 15.671-34.935 34.935s15.671 34.935 34.935 34.935c19.263 0 34.935-15.671 34.935-34.935s-15.672-34.935-34.935-34.935zm0 54.869c-10.992 0-19.935-8.942-19.935-19.935s8.942-19.935 19.935-19.935 19.935 8.942 19.935 19.935-8.943 19.935-19.935 19.935z" fill="#ffffff" data-original="#000000" style="" class=""/><path d="m334.941 294.874c-19.263 0-34.935 15.671-34.935 34.935s15.672 34.935 34.935 34.935 34.935-15.671 34.935-34.935-15.672-34.935-34.935-34.935zm0 54.869c-10.992 0-19.935-8.942-19.935-19.935s8.942-19.935 19.935-19.935 19.935 8.942 19.935 19.935-8.942 19.935-19.935 19.935z" fill="#ffffff" data-original="#000000" style="" class=""/><path d="m413.879 294.874c-19.263 0-34.935 15.671-34.935 34.935s15.672 34.935 34.935 34.935 34.935-15.671 34.935-34.935-15.672-34.935-34.935-34.935zm0 54.869c-10.992 0-19.935-8.942-19.935-19.935s8.942-19.935 19.935-19.935 19.935 8.942 19.935 19.935-8.943 19.935-19.935 19.935z" fill="#ffffff" data-original="#000000" style="" class=""/><path d="m98.131 392.206c-19.263 0-34.935 15.671-34.935 34.935s15.671 34.935 34.935 34.935 34.935-15.672 34.935-34.935-15.672-34.935-34.935-34.935zm0 54.869c-10.992 0-19.935-8.943-19.935-19.935s8.942-19.935 19.935-19.935 19.935 8.942 19.935 19.935-8.943 19.935-19.935 19.935z" fill="#ffffff" data-original="#000000" style="" class=""/><path d="m177.068 392.206c-19.263 0-34.935 15.671-34.935 34.935s15.671 34.935 34.935 34.935 34.935-15.672 34.935-34.935-15.672-34.935-34.935-34.935zm0 54.869c-10.992 0-19.935-8.943-19.935-19.935s8.942-19.935 19.935-19.935 19.935 8.942 19.935 19.935-8.943 19.935-19.935 19.935z" fill="#ffffff" data-original="#000000" style="" class=""/><path d="m256.005 392.206c-19.263 0-34.935 15.671-34.935 34.935s15.671 34.935 34.935 34.935c19.263 0 34.935-15.672 34.935-34.935s-15.672-34.935-34.935-34.935zm0 54.869c-10.992 0-19.935-8.943-19.935-19.935s8.942-19.935 19.935-19.935 19.935 8.942 19.935 19.935-8.943 19.935-19.935 19.935z" fill="#ffffff" data-original="#000000" style="" class=""/><path d="m334.941 392.206c-19.263 0-34.935 15.671-34.935 34.935s15.672 34.935 34.935 34.935 34.935-15.672 34.935-34.935-15.672-34.935-34.935-34.935zm0 54.869c-10.992 0-19.935-8.943-19.935-19.935s8.942-19.935 19.935-19.935 19.935 8.942 19.935 19.935-8.942 19.935-19.935 19.935z" fill="#ffffff" data-original="#000000" style="" class=""/></g></g></svg>
